<svg width="1660" height="501" viewBox="0 0 1660 501" fill="none" xmlns="http://www.w3.org/2000/svg">
<path d="M1029.68 391.262C933.267 462.329 793.516 500.246 673.192 500.246C504.48 500.246 352.595 437.846 237.688 334.061C228.661 325.9 236.749 314.778 247.583 321.133C371.59 393.284 524.919 436.69 683.304 436.69C790.121 436.69 907.628 414.59 1015.67 368.728C1032 361.795 1045.65 379.417 1029.68 391.262Z" fill="#4B5563"/>
<path d="M1069.77 345.4C1057.49 329.656 988.301 337.961 957.245 341.645C947.784 342.8 946.339 334.567 954.862 328.645C1009.97 289.861 1100.39 301.056 1110.94 314.056C1121.48 327.128 1108.19 417.768 1056.41 461.029C1048.46 467.674 1040.88 464.135 1044.42 455.324C1056.05 426.29 1082.12 361.217 1069.77 345.4Z" fill="#4B5563"/>
<path d="M959.411 54.8451V17.1447C959.411 11.4391 963.745 7.61133 968.945 7.61133H1137.73C1143.15 7.61133 1147.48 11.5114 1147.48 17.1447V49.4284C1147.41 54.8451 1142.86 61.9229 1134.77 73.1175L1047.31 197.991C1079.81 197.196 1114.11 202.035 1143.58 218.647C1150.22 222.402 1152.03 227.891 1152.54 233.308V273.536C1152.54 279.025 1146.47 285.453 1140.11 282.131C1088.18 254.902 1019.21 251.941 961.795 282.419C955.945 285.597 949.806 279.242 949.806 273.753V235.547C949.806 229.408 949.878 218.935 956.017 209.619L1057.35 64.3063H969.161C963.745 64.3063 959.411 60.4785 959.411 54.8451Z" fill="#4B5563"/>
<path d="M343.711 290.078H292.361C287.45 289.717 283.55 286.034 283.188 281.339V17.7978C283.188 12.5255 287.594 8.33656 293.083 8.33656H340.967C345.95 8.55309 349.922 12.381 350.284 17.1477V51.5981H351.222C363.717 18.3033 387.189 2.77539 418.823 2.77539C450.962 2.77539 471.04 18.3033 485.485 51.5981C497.907 18.3033 526.146 2.77539 556.408 2.77539C577.93 2.77539 601.475 11.6588 615.847 31.5923C632.097 53.7647 628.775 85.9761 628.775 114.215L628.703 280.545C628.703 285.817 624.297 290.078 618.808 290.078H567.53C562.402 289.717 558.286 285.6 558.286 280.545V140.866C558.286 129.743 559.297 102.01 556.841 91.4651C553.013 73.7705 541.53 68.7871 526.652 68.7871C514.23 68.7871 501.229 77.0927 495.957 90.3818C490.685 103.671 491.19 125.915 491.19 140.866V280.545C491.19 285.817 486.785 290.078 481.296 290.078H430.018C424.818 289.717 420.773 285.6 420.773 280.545L420.701 140.866C420.701 111.471 425.54 68.2093 389.067 68.2093C352.161 68.2093 353.606 110.387 353.606 140.866V280.545C353.606 285.817 349.2 290.078 343.711 290.078Z" fill="#4B5563"/>
<path d="M1292.79 2.77539C1368.99 2.77539 1410.23 68.2093 1410.23 151.41C1410.23 231.794 1364.65 295.567 1292.79 295.567C1217.97 295.567 1177.24 230.133 1177.24 148.593C1177.24 66.5482 1218.48 2.77539 1292.79 2.77539ZM1293.23 56.5815C1255.38 56.5815 1253 108.149 1253 140.288C1253 172.499 1252.49 241.255 1292.79 241.255C1332.59 241.255 1334.47 185.788 1334.47 151.988C1334.47 129.743 1333.53 103.165 1326.81 82.0761C1321.03 63.7315 1309.55 56.5815 1293.23 56.5815Z" fill="#4B5563"/>
<path d="M1509.03 290.078H1457.89C1452.77 289.717 1448.65 285.6 1448.65 280.545L1448.58 16.9311C1449.01 12.0921 1453.27 8.33656 1458.47 8.33656H1506.07C1510.54 8.55309 1514.23 11.5866 1515.24 15.7033V56.0036H1516.18C1530.55 19.9644 1550.7 2.77539 1586.16 2.77539C1609.2 2.77539 1631.66 11.081 1646.11 33.8312C1659.54 54.9203 1659.54 90.3818 1659.54 115.876V281.772C1658.96 286.395 1654.7 290.078 1649.65 290.078H1598.15C1593.46 289.717 1589.56 286.25 1589.05 281.772V138.627C1589.05 109.81 1592.37 67.6315 1556.91 67.6315C1544.42 67.6315 1532.93 76.0094 1527.23 88.7206C1520.01 104.826 1519.07 120.86 1519.07 138.627V280.545C1519 285.817 1514.52 290.078 1509.03 290.078Z" fill="#4B5563"/>
<path d="M824.86 164.192V153.07C787.738 153.07 748.521 161.014 748.521 204.781C748.521 226.954 760.004 241.976 779.721 241.976C794.166 241.976 807.094 233.093 815.255 218.648C825.366 200.881 824.86 184.198 824.86 164.192ZM876.644 289.354C873.25 292.388 868.339 292.604 864.511 290.582C847.466 276.426 844.433 269.854 835.044 256.348C806.877 285.093 786.943 293.688 750.399 293.688C707.209 293.688 673.553 267.037 673.553 213.665C673.553 171.992 696.159 143.609 728.298 129.742C756.176 117.464 795.105 115.297 824.86 111.903V105.258C824.86 93.0525 825.799 78.6079 818.649 68.0634C812.366 58.6022 800.377 54.7022 789.832 54.7022C770.26 54.7022 752.782 64.7411 748.521 85.5413C747.654 90.1636 744.26 94.7137 739.637 94.9303L689.804 89.5858C685.615 88.6469 680.992 85.2524 682.148 78.8246C693.631 18.4463 748.16 0.246094 796.982 0.246094C821.971 0.246094 854.616 6.8906 874.333 25.813C899.322 49.141 896.939 80.269 896.939 114.142V194.165C896.939 218.215 906.906 228.759 916.295 241.759C919.617 246.382 920.339 251.943 916.15 255.41C905.678 264.149 887.044 280.399 876.789 289.499L876.644 289.354Z" fill="#4B5563"/>
<path d="M151.671 164.192V153.07C114.548 153.07 75.3314 161.014 75.3314 204.781C75.3314 226.954 86.8148 241.976 106.532 241.976C120.976 241.976 133.904 233.093 142.065 218.648C152.176 200.881 151.671 184.198 151.671 164.192ZM203.455 289.354C200.06 292.388 195.149 292.604 191.321 290.582C174.277 276.426 171.243 269.854 161.854 256.348C133.687 285.093 113.754 293.688 77.2091 293.688C34.0198 293.688 0.364014 267.037 0.364014 213.665C0.364014 171.992 22.9698 143.609 55.1089 129.742C82.987 117.464 121.915 115.297 151.671 111.903V105.258C151.671 93.0525 152.61 78.6079 145.46 68.0634C139.176 58.6022 127.187 54.7022 116.643 54.7022C97.0705 54.7022 79.5925 64.7411 75.3314 85.5413C74.4647 90.1636 71.0702 94.7137 66.4479 94.9303L16.6142 89.5858C12.4252 88.6469 7.80296 85.2524 8.95852 78.8246C20.442 18.4463 74.9702 0.246094 123.793 0.246094C148.782 0.246094 181.427 6.8906 201.144 25.813C226.133 49.141 223.749 80.269 223.749 114.142V194.165C223.749 218.215 233.716 228.759 243.105 241.759C246.427 246.382 247.15 251.943 242.961 255.41C232.488 264.149 213.855 280.399 203.599 289.499L203.455 289.354Z" fill="#4B5563"/>
</svg>
