<svg width="570" height="700" viewBox="0 0 570 700" fill="none" xmlns="http://www.w3.org/2000/svg">
<path d="M551.725 238.654C547.665 241.804 475.978 282.198 475.978 372.017C475.978 475.908 567.197 512.661 569.927 513.571C569.507 515.812 555.436 563.906 521.832 612.911C491.869 656.036 460.576 699.09 412.971 699.09C365.367 699.09 353.115 671.437 298.16 671.437C244.604 671.437 225.563 700 182.018 700C138.474 700 108.091 660.096 73.1573 611.091C32.6933 553.545 0 464.146 0 379.298C0 243.204 88.4889 171.027 175.578 171.027C221.852 171.027 260.426 201.41 289.479 201.41C317.132 201.41 360.256 169.207 412.901 169.207C432.853 169.207 504.54 171.027 551.725 238.654ZM387.909 111.591C409.681 85.7586 425.083 49.915 425.083 14.0714C425.083 9.10091 424.662 4.06041 423.752 0C388.329 1.33013 346.185 23.5924 320.772 53.0653C300.82 75.7476 282.198 111.591 282.198 147.925C282.198 153.385 283.108 158.846 283.528 160.596C285.769 161.016 289.409 161.506 293.049 161.506C324.832 161.506 364.806 140.224 387.909 111.591Z" fill="#4B5563"/>
</svg>
