<svg width="1520" height="501" viewBox="0 0 1520 501" fill="none" xmlns="http://www.w3.org/2000/svg">
<path d="M650.376 263.595C650.376 335.531 594.101 388.54 525.037 388.54C455.974 388.54 399.698 335.531 399.698 263.595C399.698 191.152 455.974 138.65 525.037 138.65C594.101 138.65 650.376 191.152 650.376 263.595ZM595.509 263.595C595.509 218.642 562.893 187.885 525.037 187.885C487.182 187.885 454.566 218.642 454.566 263.595C454.566 308.097 487.182 339.305 525.037 339.305C562.893 339.305 595.509 308.041 595.509 263.595Z" fill="#4B5563"/>
<path d="M920.771 263.595C920.771 335.531 864.495 388.54 795.432 388.54C726.369 388.54 670.093 335.531 670.093 263.595C670.093 191.208 726.369 138.65 795.432 138.65C864.495 138.65 920.771 191.152 920.771 263.595ZM865.903 263.595C865.903 218.642 833.287 187.885 795.432 187.885C757.577 187.885 724.96 218.642 724.96 263.595C724.96 308.097 757.577 339.305 795.432 339.305C833.287 339.305 865.903 308.041 865.903 263.595Z" fill="#4B5563"/>
<path d="M1179.9 146.199V370.513C1179.9 462.785 1125.48 500.472 1061.15 500.472C1000.59 500.472 964.146 459.969 950.401 426.846L998.171 406.96C1006.68 427.296 1027.52 451.294 1061.09 451.294C1102.27 451.294 1127.79 425.888 1127.79 378.062V360.092H1125.88C1113.6 375.245 1089.94 388.483 1060.08 388.483C997.607 388.483 940.374 334.067 940.374 264.046C940.374 193.518 997.607 138.65 1060.08 138.65C1089.88 138.65 1113.54 151.888 1125.88 166.591H1127.79V146.255H1179.9V146.199ZM1131.68 264.046C1131.68 220.05 1102.33 187.885 1064.98 187.885C1027.13 187.885 995.411 220.05 995.411 264.046C995.411 307.59 1027.13 339.305 1064.98 339.305C1102.33 339.305 1131.68 307.59 1131.68 264.046Z" fill="#4B5563"/>
<path d="M1265.81 14.7188V380.878H1212.29V14.7188H1265.81Z" fill="#4B5563"/>
<path d="M1474.35 304.717L1516.93 333.109C1503.19 353.444 1470.07 388.483 1412.83 388.483C1341.85 388.483 1288.84 333.616 1288.84 263.538C1288.84 189.236 1342.3 138.594 1406.69 138.594C1471.53 138.594 1503.24 190.194 1513.61 218.078L1519.3 232.274L1352.27 301.45C1365.06 326.518 1384.95 339.305 1412.83 339.305C1440.77 339.305 1460.15 325.56 1474.35 304.717ZM1343.26 259.764L1454.91 213.403C1448.77 197.799 1430.29 186.927 1408.55 186.927C1380.67 186.927 1341.85 211.544 1343.26 259.764Z" fill="#4B5563"/>
<path d="M197.128 231.094V178.086H375.757C377.504 187.324 378.405 198.253 378.405 210.083C378.405 249.853 367.533 299.031 332.494 334.07C298.413 369.559 254.869 388.486 197.184 388.486C90.2661 388.486 0.359985 301.397 0.359985 194.479C0.359985 87.5602 90.2661 0.470703 197.184 0.470703C256.333 0.470703 298.47 23.6795 330.128 53.9299L292.724 91.3344C270.022 70.0409 239.265 53.4792 197.128 53.4792C119.052 53.4792 57.9878 116.402 57.9878 194.479C57.9878 272.555 119.052 335.478 197.128 335.478C247.771 335.478 276.613 315.142 295.09 296.665C310.074 281.681 319.932 260.274 323.819 231.038L197.128 231.094Z" fill="#4B5563"/>
</svg>
