<svg width="5000" height="5000" viewBox="0 0 5000 5000" fill="none" xmlns="http://www.w3.org/2000/svg">
<path d="M2250 144.337C2404.7 55.0211 2595.3 55.0212 2750 144.338L4415.06 1105.66C4569.76 1194.98 4665.06 1360.04 4665.06 1538.68V3461.33C4665.06 3639.96 4569.76 3805.02 4415.06 3894.34L2750 4855.66C2595.3 4944.98 2404.7 4944.98 2250 4855.66L584.936 3894.34C430.236 3805.02 334.937 3639.96 334.937 3461.32V1538.67C334.937 1360.04 430.236 1194.98 584.937 1105.66L2250 144.337Z" fill="url(#paint0_linear_4_6)"/>
<path d="M914.277 2819V2728.9H992.477V2315.8H914.277V2225.7H1183.73V2315.8H1104.68V2728.9H1183.73V2819H914.277ZM1291.55 2819V2375.3H1400.35V2449.25H1404.6C1413.1 2426.02 1426.7 2406.18 1445.4 2389.75C1464.1 2373.32 1490.17 2365.1 1523.6 2365.1C1554.2 2365.1 1580.55 2372.47 1602.65 2387.2C1624.75 2401.93 1641.18 2424.32 1651.95 2454.35H1653.65C1661.58 2429.42 1677.17 2408.45 1700.4 2391.45C1724.2 2373.88 1753.95 2365.1 1789.65 2365.1C1833.28 2365.1 1866.72 2380.12 1889.95 2410.15C1913.75 2440.18 1925.65 2482.97 1925.65 2538.5V2819H1816.85V2549.55C1816.85 2486.08 1793.05 2454.35 1745.45 2454.35C1734.68 2454.35 1724.2 2456.05 1714 2459.45C1704.37 2462.28 1695.58 2466.82 1687.65 2473.05C1680.28 2478.72 1674.33 2486.08 1669.8 2495.15C1665.27 2503.65 1663 2513.85 1663 2525.75V2819H1554.2V2549.55C1554.2 2486.08 1530.4 2454.35 1482.8 2454.35C1472.6 2454.35 1462.4 2456.05 1452.2 2459.45C1442.57 2462.28 1433.78 2466.82 1425.85 2473.05C1418.48 2478.72 1412.25 2486.08 1407.15 2495.15C1402.62 2503.65 1400.35 2513.85 1400.35 2525.75V2819H1291.55ZM2372.49 2819C2348.69 2819 2329.71 2812.2 2315.54 2798.6C2301.94 2784.43 2293.44 2765.73 2290.04 2742.5H2284.94C2277.57 2771.4 2262.56 2793.22 2239.89 2807.95C2217.22 2822.12 2189.17 2829.2 2155.74 2829.2C2110.41 2829.2 2075.56 2817.3 2051.19 2793.5C2026.82 2769.7 2014.64 2737.97 2014.64 2698.3C2014.64 2652.4 2031.07 2618.4 2063.94 2596.3C2096.81 2573.63 2143.56 2562.3 2204.19 2562.3H2279.84V2530C2279.84 2505.07 2273.32 2485.8 2260.29 2472.2C2247.26 2458.6 2226.29 2451.8 2197.39 2451.8C2171.89 2451.8 2151.21 2457.47 2135.34 2468.8C2120.04 2479.57 2107.01 2492.6 2096.24 2507.9L2031.64 2450.1C2048.07 2424.6 2069.89 2404.2 2097.09 2388.9C2124.29 2373.03 2160.27 2365.1 2205.04 2365.1C2265.11 2365.1 2310.72 2378.7 2341.89 2405.9C2373.06 2433.1 2388.64 2472.2 2388.64 2523.2V2732.3H2432.84V2819H2372.49ZM2192.29 2750.15C2216.66 2750.15 2237.34 2744.77 2254.34 2734C2271.34 2723.23 2279.84 2707.37 2279.84 2686.4V2627.75H2210.14C2153.47 2627.75 2125.14 2645.88 2125.14 2682.15V2696.6C2125.14 2714.73 2130.81 2728.33 2142.14 2737.4C2154.04 2745.9 2170.76 2750.15 2192.29 2750.15ZM2921.25 2856.4C2921.25 2879.63 2917 2900.03 2908.5 2917.6C2900.56 2935.73 2887.25 2950.75 2868.55 2962.65C2849.85 2974.55 2825.76 2983.62 2796.3 2989.85C2766.83 2996.08 2730.85 2999.2 2688.35 2999.2C2650.95 2999.2 2619.21 2996.65 2593.15 2991.55C2567.08 2987.02 2545.55 2980.22 2528.55 2971.15C2512.11 2962.65 2500.21 2951.88 2492.85 2938.85C2485.48 2925.82 2481.8 2911.08 2481.8 2894.65C2481.8 2869.72 2488.6 2850.17 2502.2 2836C2516.36 2822.4 2535.91 2813.62 2560.85 2809.65V2800.3C2542.71 2795.77 2528.55 2786.98 2518.35 2773.95C2508.71 2760.35 2503.9 2744.48 2503.9 2726.35C2503.9 2715.02 2506.16 2705.1 2510.7 2696.6C2515.23 2687.53 2521.18 2679.88 2528.55 2673.65C2536.48 2667.42 2545.26 2662.32 2554.9 2658.35C2564.53 2653.82 2574.73 2650.42 2585.5 2648.15V2644.75C2558.3 2632.28 2537.9 2615 2524.3 2592.9C2511.26 2570.8 2504.75 2545.02 2504.75 2515.55C2504.75 2470.22 2520.33 2433.95 2551.5 2406.75C2582.66 2378.98 2628.28 2365.1 2688.35 2365.1C2701.95 2365.1 2715.26 2365.95 2728.3 2367.65C2741.9 2369.35 2754.36 2372.18 2765.7 2376.15V2361.7C2765.7 2318.63 2786.66 2297.1 2828.6 2297.1H2897.45V2380.4H2803.1V2392.3C2826.33 2405.33 2843.61 2422.33 2854.95 2443.3C2866.28 2464.27 2871.95 2488.35 2871.95 2515.55C2871.95 2560.32 2856.36 2596.3 2825.2 2623.5C2794.6 2650.7 2748.98 2664.3 2688.35 2664.3C2662.28 2664.3 2639.61 2661.75 2620.35 2656.65C2611.85 2660.62 2604.48 2666 2598.25 2672.8C2592.01 2679.03 2588.9 2686.97 2588.9 2696.6C2588.9 2718.7 2608.16 2729.75 2646.7 2729.75H2765.7C2820.1 2729.75 2859.48 2741.08 2883.85 2763.75C2908.78 2785.85 2921.25 2816.73 2921.25 2856.4ZM2819.25 2869.15C2819.25 2854.98 2813.58 2843.93 2802.25 2836C2790.91 2828.07 2771.36 2824.1 2743.6 2824.1H2592.3C2577 2835.43 2569.35 2850.73 2569.35 2870C2569.35 2887 2576.43 2900.32 2590.6 2909.95C2604.76 2919.58 2628.85 2924.4 2662.85 2924.4H2717.25C2752.95 2924.4 2778.73 2919.87 2794.6 2910.8C2811.03 2901.73 2819.25 2887.85 2819.25 2869.15ZM2688.35 2590.35C2741.61 2590.35 2768.25 2567.68 2768.25 2522.35V2507.9C2768.25 2462.57 2741.61 2439.9 2688.35 2439.9C2635.08 2439.9 2608.45 2462.57 2608.45 2507.9V2522.35C2608.45 2567.68 2635.08 2590.35 2688.35 2590.35ZM3038.48 2310.7C3015.81 2310.7 2999.38 2305.6 2989.18 2295.4C2979.55 2285.2 2974.73 2272.17 2974.73 2256.3V2239.3C2974.73 2223.43 2979.55 2210.4 2989.18 2200.2C2999.38 2190 3015.81 2184.9 3038.48 2184.9C3060.58 2184.9 3076.73 2190 3086.93 2200.2C3097.13 2210.4 3102.23 2223.43 3102.23 2239.3V2256.3C3102.23 2272.17 3097.13 2285.2 3086.93 2295.4C3076.73 2305.6 3060.58 2310.7 3038.48 2310.7ZM2984.08 2375.3H3092.88V2819H2984.08V2375.3ZM3218.99 2819V2375.3H3327.79V2449.25H3332.04C3341.11 2425.45 3355.28 2405.62 3374.54 2389.75C3394.38 2373.32 3421.58 2365.1 3456.14 2365.1C3502.04 2365.1 3537.18 2380.12 3561.54 2410.15C3585.91 2440.18 3598.09 2482.97 3598.09 2538.5V2819H3489.29V2549.55C3489.29 2517.82 3483.63 2494.02 3472.29 2478.15C3460.96 2462.28 3442.26 2454.35 3416.19 2454.35C3404.86 2454.35 3393.81 2456.05 3383.04 2459.45C3372.84 2462.28 3363.49 2466.82 3354.99 2473.05C3347.06 2478.72 3340.54 2486.08 3335.44 2495.15C3330.34 2503.65 3327.79 2513.85 3327.79 2525.75V2819H3218.99ZM3898.05 2829.2C3865.18 2829.2 3835.72 2823.82 3809.65 2813.05C3784.15 2801.72 3762.33 2786.13 3744.2 2766.3C3726.63 2745.9 3713.03 2721.53 3703.4 2693.2C3693.77 2664.3 3688.95 2632 3688.95 2596.3C3688.95 2561.17 3693.48 2529.43 3702.55 2501.1C3712.18 2472.77 3725.78 2448.68 3743.35 2428.85C3760.92 2408.45 3782.45 2392.87 3807.95 2382.1C3833.45 2370.77 3862.35 2365.1 3894.65 2365.1C3929.22 2365.1 3959.25 2371.05 3984.75 2382.95C4010.25 2394.85 4031.22 2411 4047.65 2431.4C4064.08 2451.8 4076.27 2475.6 4084.2 2502.8C4092.7 2529.43 4096.95 2558.05 4096.95 2588.65V2624.35H3802V2635.4C3802 2667.7 3811.07 2693.77 3829.2 2713.6C3847.33 2732.87 3874.25 2742.5 3909.95 2742.5C3937.15 2742.5 3959.25 2736.83 3976.25 2725.5C3993.82 2714.17 4009.4 2699.72 4023 2682.15L4081.65 2747.6C4063.52 2773.1 4038.58 2793.22 4006.85 2807.95C3975.68 2822.12 3939.42 2829.2 3898.05 2829.2ZM3896.35 2446.7C3867.45 2446.7 3844.5 2456.33 3827.5 2475.6C3810.5 2494.87 3802 2519.8 3802 2550.4V2557.2H3983.9V2549.55C3983.9 2518.95 3976.25 2494.3 3960.95 2475.6C3946.22 2456.33 3924.68 2446.7 3896.35 2446.7Z" fill="white"/>
<defs>
<linearGradient id="paint0_linear_4_6" x1="0" y1="0" x2="5000" y2="5000" gradientUnits="userSpaceOnUse">
<stop stop-color="#9089FC"/>
<stop offset="0.484375" stop-color="#FF80B5"/>
<stop offset="1" stop-color="white"/>
</linearGradient>
</defs>
</svg>
