<svg width="1489" height="300" viewBox="0 0 1489 300" fill="none" xmlns="http://www.w3.org/2000/svg">
<path d="M48.7853 197.843C48.7853 215.089 52.5707 228.33 57.5183 236.34C64.0052 246.832 73.6806 251.277 83.5445 251.277C96.267 251.277 107.906 248.12 130.335 217.099C148.304 192.236 169.476 157.335 183.723 135.455L207.848 98.3874C224.607 72.644 244.005 44.0262 266.246 24.6283C284.403 8.79581 303.99 0 323.702 0C356.796 0 388.319 19.178 412.445 55.1466C438.848 94.5393 451.665 144.157 451.665 195.361C451.665 225.801 445.665 248.168 435.455 265.838C425.592 282.927 406.366 300 374.026 300V251.277C401.717 251.277 408.628 225.832 408.628 196.712C408.628 155.215 398.953 109.162 377.639 76.2565C362.513 52.9162 342.911 38.6545 321.346 38.6545C298.021 38.6545 279.251 56.2461 258.157 87.6126C246.942 104.277 235.429 124.586 222.503 147.503L208.272 172.712C179.686 223.398 172.445 234.942 158.152 253.995C133.099 287.356 111.707 300 83.5445 300C50.1361 300 29.0105 285.534 15.9267 263.733C5.24607 245.969 0 222.66 0 196.099L48.7853 197.843Z" fill="#4B5563"/>
<path d="M38.4658 58.5864C60.8323 24.1099 93.1098 0 130.131 0C151.571 0 172.885 6.34555 195.141 24.5183C219.487 44.3874 245.434 77.1047 277.806 131.026L289.413 150.377C317.434 197.058 333.377 221.073 342.707 232.398C354.707 246.942 363.11 251.277 374.026 251.277C401.717 251.277 408.628 225.832 408.628 196.712L451.665 195.361C451.665 225.801 445.665 248.168 435.455 265.838C425.591 282.927 406.366 300 374.026 300C353.921 300 336.11 295.634 316.413 277.052C301.272 262.791 283.57 237.455 269.953 214.681L229.445 147.016C209.12 113.058 190.476 87.7382 179.686 76.2723C168.078 63.9424 153.157 49.0524 129.345 49.0524C110.073 49.0524 93.7067 62.5759 80.0103 83.2618L38.4658 58.5864Z" fill="#4B5563"/>
<path d="M129.346 49.0524C110.073 49.0524 93.7068 62.5759 80.0105 83.2618C60.644 112.492 48.7853 156.031 48.7853 197.843C48.7853 215.089 52.5707 228.33 57.5183 236.34L15.9267 263.733C5.24607 245.969 0 222.66 0 196.099C0 147.801 13.2565 97.4607 38.466 58.5864C60.8325 24.1099 93.1099 0 130.131 0L129.346 49.0524Z" fill="#4B5563"/>
<path d="M546.503 9.48438H602.937L698.89 183.076L794.859 9.48438H850.068V294.72H804.031V76.1126L719.874 227.495H676.681L592.539 76.1126V294.72H546.503V9.48438ZM994.319 115.835C961.304 115.835 941.419 140.683 936.66 171.453H1048.71C1046.4 139.757 1028.12 115.835 994.319 115.835ZM891.016 188.982C891.016 124.238 932.859 77.1179 995.12 77.1179C1056.36 77.1179 1092.93 123.641 1092.93 192.437V205.081H936.66C942.204 238.552 964.414 261.107 1000.23 261.107C1028.8 261.107 1046.65 252.39 1063.59 236.448L1088.04 266.401C1065 287.589 1035.69 299.809 998.592 299.809C931.194 299.809 891.016 250.662 891.016 188.982ZM1148.75 119.919H1106.37V82.2226H1148.75V19.8823H1193.17V82.2226H1257.55V119.919H1193.17V215.463C1193.17 248.086 1203.6 259.678 1229.23 259.678C1240.93 259.678 1247.64 258.673 1257.55 257.024V294.312C1245.2 297.799 1233.42 299.401 1220.67 299.401C1172.72 299.401 1148.75 273.202 1148.75 220.757V119.919ZM1444.59 156.579C1435.66 134.055 1415.76 117.469 1386.52 117.469C1348.51 117.469 1324.18 144.437 1324.18 188.369C1324.18 231.202 1346.58 259.474 1384.7 259.474C1414.67 259.474 1436.06 242.039 1444.59 220.348V156.579ZM1489.01 294.72H1445.4V264.971C1433.21 282.484 1411.04 299.809 1375.12 299.809C1317.35 299.809 1278.74 251.448 1278.74 188.369C1278.74 124.694 1318.27 77.1179 1377.57 77.1179C1406.87 77.1179 1429.87 88.8352 1445.4 109.521V82.2226H1489.01V294.72Z" fill="#4B5563"/>
</svg>
