<svg width="1111" height="300" viewBox="0 0 1111 300" fill="none" xmlns="http://www.w3.org/2000/svg">
<path d="M152.636 280.663C135.938 283.595 118.945 284.474 101.368 286.816L47.7531 129.786V293.555C31.0546 295.313 15.8205 297.656 0 300V0H44.5325L105.469 170.217V0H152.636V280.663ZM244.922 109.863C263.087 109.863 290.919 108.984 307.618 108.984V155.858C286.816 155.858 262.501 155.858 244.922 156.737V226.465C272.462 224.708 300.001 222.362 327.832 221.483V266.597L198.046 276.854V0H327.832V46.8751H244.922V109.863ZM502.148 46.8762H453.515V262.501C437.695 262.501 421.874 262.501 406.643 263.085V46.8762H358.01V0H502.15L502.148 46.8762ZM578.319 106.642H642.48V153.516H578.319V259.864H532.32V0H663.281V46.8751H578.319V106.642ZM739.452 218.848C766.113 219.432 793.065 221.486 819.14 222.948V269.238C777.246 266.6 735.351 263.966 692.578 263.085V0H739.452V218.848ZM858.69 272.461C873.632 273.341 889.452 274.22 904.686 275.975V0H858.69V272.461ZM1110.06 0L1050.59 142.676L1110.06 300C1092.48 297.656 1074.9 294.433 1057.32 291.503L1023.63 204.786L989.359 284.474C972.363 281.542 955.957 280.663 938.968 278.319L999.319 140.917L944.825 0H995.213L1025.98 78.8088L1058.79 0L1110.06 0Z" fill="#4B5563"/>
</svg>
